# xmcd
#
# Track frame offsets: 
#        150
#        13341
#        24893
#        36973
#        49191
#        61180
#        72026
#        85057
#        98307
#        111657
#        125051
#        138475
#        152436
#        165352
#        177994
#        191087
#        202932
#        215128
#        227225
#        241452
#        254323
#        266935
#        279785
#        293291
#        306769
#
# Disc length: 4239 seconds
#
# Revision: 0
# Processed by: cddbd v1.5.2PL0 Copyright (c) Steve Scherf et al.
# Submitted via: ExactAudioCopy v0.99pb5
#
DISCID=5e108d19
DTITLE=Various Artist - Best Of Vintage Country
DYEAR=2007
DGENRE=Country
TTITLE0=Johnny Barfield/ When daddy plays the banjo
TTITLE1=Bill Monroe and his Bluegrass boys/ Orange blossom special 
TTITLE2=Bob Wills and his Texas Playboys/ Take me back to tulsa
TTITLE3=Ted Daffan's Texans/ Born to lose
TTITLE4=Floyd Tillman/ Each night at nine
TTITLE5=Gene Autrey/ I'm thinking of my blue eyes
TTITLE6=Spade Cooley/ Shame on you 
TTITLE7=Wilf Carter/ Old shep
TTITLE8=Red Foley/ Smoke on the water
TTITLE9=Elton britt/ I'm a convict with glory in my heart
TTITLE10=Tex Williams/ I got texas in my soul
TTITLE11=Hank williams/ Calling you
TTITLE12=Hank Williams/ Never again (will i knock at your door)
TTITLE13=Molly O'Day/ The tramp on the street
TTITLE14=Wesley Tuttle/ I wish i had never met sunshine
TTITLE15=Elton Britt/ Chime Bells
TTITLE16=Roy Acuff/ Blue eyes crying in the rain
TTITLE17=Red Foley/ Tennessee saturday night
TTITLE18=Tommy Duncan/ Gamblin' polka dot blues
TTITLE19=Sons of the Pioneers/ Sons of the Pioneers
TTITLE20=Slim Whitman/ I'm casting my lasso towards the sky
TTITLE21=Roy Rogers/ Blue shadows on the trail
TTITLE22=Wiley and Gene/ Make room in your heart for a friend
TTITLE23=Jimmie Davis/ Grievin' my heart out for you
TTITLE24=Ernest Tubb/ Till the end of the world
EXTD=
EXTT0=
EXTT1=
EXTT2=
EXTT3=
EXTT4=
EXTT5=
EXTT6=
EXTT7=
EXTT8=
EXTT9=
EXTT10=
EXTT11=
EXTT12=
EXTT13=
EXTT14=
EXTT15=
EXTT16=
EXTT17=
EXTT18=
EXTT19=
EXTT20=
EXTT21=
EXTT22=
EXTT23=
EXTT24=
PLAYORDER=
